<svg xmlns="http://www.w3.org/2000/svg" width="45" height="47" viewBox="0 0 45 47">
    <g fill="none" fill-rule="evenodd">
        <path fill="#65AED5" fill-rule="nonzero" d="M43.315 20.869h-3.272c-.904 0-1.637-.701-1.637-1.567 0-.865.733-1.565 1.637-1.565h3.272c.904 0 1.636.701 1.636 1.565 0 .866-.732 1.567-1.636 1.567zM36.887 10.44a1.688 1.688 0 0 1-2.314 0 1.519 1.519 0 0 1 0-2.214l2.314-2.216a1.688 1.688 0 0 1 2.314 0 1.52 1.52 0 0 1 0 2.216l-2.314 2.214zm-2.411 12.226c1.43 1.634 2.296 3.736 2.296 6.036 0 4.094-2.74 7.567-6.557 8.855a5.292 5.292 0 0 0-1-2.982c2.499-.882 4.283-3.176 4.283-5.873 0-3.46-2.93-6.267-6.545-6.267a6.71 6.71 0 0 0-3.545 1.012c-1.008-4.165-4.888-7.278-9.544-7.278-5.421 0-9.816 4.208-9.816 9.4 0 1.1.207 2.15.57 3.133h.012a9.54 9.54 0 0 0 4.414 5.048l-.047.045a5.377 5.377 0 0 0-1.532 2.699c-3.069-1.65-5.36-4.454-6.26-7.792a12.029 12.029 0 0 1-.43-3.133c0-6.922 5.861-12.532 13.09-12.532 1.286 0 2.527.182 3.7.512 1.796-2.214 4.597-3.646 7.753-3.646 5.422 0 9.817 4.209 9.817 9.399 0 1.187-.24 2.319-.66 3.364zm-9.159-9.63a6.67 6.67 0 0 0-4.633 1.842 12.883 12.883 0 0 1 4.606 4.584c.543-.088 1.094-.16 1.663-.16 1.74 0 3.37.438 4.787 1.196.078-.387.122-.786.122-1.196 0-3.46-2.93-6.265-6.545-6.265zm0-6.266c-.903 0-1.636-.7-1.636-1.566V2.073c0-.866.733-1.567 1.636-1.567.903 0 1.636.701 1.636 1.567v3.132c0 .865-.732 1.566-1.636 1.566zm-11.568 3.67l-2.314-2.214a1.52 1.52 0 0 1 0-2.216 1.688 1.688 0 0 1 2.314 0l2.314 2.216a1.52 1.52 0 0 1 0 2.214 1.688 1.688 0 0 1-2.314 0zm-.703 23.909l1.735 1.661a2.279 2.279 0 0 1 0 3.323 2.531 2.531 0 0 1-3.47 0 2.28 2.28 0 0 1 0-3.323l1.735-1.661zm5.726 6.265l1.736 1.661a2.279 2.279 0 0 1 0 3.323 2.531 2.531 0 0 1-3.471 0 2.28 2.28 0 0 1 0-3.322l1.735-1.662zM24.5 34.35l1.735 1.661a2.279 2.279 0 0 1 0 3.323 2.53 2.53 0 0 1-3.47 0 2.279 2.279 0 0 1 0-3.323L24.5 34.35z"/>
        <text fill="#4A4A4A" font-family="OpenSans-Regular, Open Sans" font-size="24" transform="translate(0 -24)">
            <tspan x="5.277" y="96">92</tspan>
        </text>
    </g>
</svg>
