<svg xmlns="http://www.w3.org/2000/svg" width="38" height="35" viewBox="0 0 38 35">
    <path fill="#65AED5" fill-rule="nonzero" d="M27.819 6.874c-.588 0-1.157.074-1.717.163C23.792 3.146 19.379.512 14.309.512 6.85.512.8 6.21.8 13.237c0 4.767 2.787 8.915 6.906 11.094a5.43 5.43 0 0 1 1.581-2.74l.048-.045c-3.077-1.64-5.156-4.744-5.156-8.309 0-5.27 4.537-9.544 10.132-9.544 4.806 0 8.81 3.161 9.85 7.39a7.004 7.004 0 0 1 3.66-1.027c3.73 0 6.754 2.849 6.754 6.363 0 2.739-1.842 5.068-4.42 5.964a5.321 5.321 0 0 1 1.031 3.029c3.94-1.309 6.768-4.835 6.768-8.993-.002-5.271-4.538-9.545-10.134-9.545zm-14.354 15.28l-1.791 1.687a2.29 2.29 0 0 0 0 3.374c.99.932 2.593.932 3.582 0 .99-.932.99-2.442 0-3.374l-1.791-1.688zm5.91 6.361l-1.79 1.688a2.289 2.289 0 0 0 0 3.374c.989.932 2.592.932 3.581 0 .99-.93.99-2.442 0-3.374l-1.79-1.688zm5.911-6.362l-1.791 1.688a2.289 2.289 0 0 0 0 3.374c.989.932 2.592.932 3.582 0a2.29 2.29 0 0 0 0-3.374l-1.791-1.688z"/>
</svg>
