<svg xmlns="http://www.w3.org/2000/svg" width="36" height="35" viewBox="0 0 36 35">
  <g stroke="null" id="svg_6">
   <path stroke="null" id="svg_5" d="m30.813457,14.290122l0,0c0.691877,0.986131 1.170815,2.129381 1.380308,3.364974l-0.002756,0c0.075114,0.449306 0.124042,0.907571 0.124042,1.37824c0,4.566799 -3.701954,8.268753 -8.268753,8.268753c-0.192265,0 -0.44655,0 -0.731846,0l2.469807,-3.040398c2.192091,-0.7284 3.775,-2.791626 3.775,-5.228355c0,-0.476182 -0.067534,-0.936514 -0.181239,-1.37824l0,0c-0.613317,-2.375397 -2.764061,-4.134032 -5.331723,-4.134032c-1.102592,0 -2.123868,0.331467 -2.985958,0.889654c-0.848307,-3.663363 -4.116804,-6.401926 -8.038587,-6.401926c-4.56611,0 -8.268064,3.701954 -8.268064,8.268753c0,0.470669 0.048238,0.928934 0.124042,1.377551l-0.009648,0c0.526488,3.134119 2.817123,5.666635 5.814796,6.550087l-0.930312,2.603496c-4.067876,-1.261779 -7.119301,-4.817639 -7.66026,-9.153583l0,0c-0.056508,-0.452063 -0.095788,-0.909639 -0.095788,-1.377551c0,-6.089066 4.936168,-11.024545 11.024545,-11.024545c1.380308,0 2.697216,0.25842 3.914203,0.722198l0,0c1.126711,-3.22715 4.189162,-5.54535 7.799462,-5.54535c0.520975,0 1.028167,0.053751 1.521577,0.145404c-0.090964,0.396933 -0.143337,0.808338 -0.143337,1.232147c0,3.044533 2.468428,5.512272 5.512272,5.512272c0.424498,0 0.835214,-0.052373 1.232147,-0.142648c0.092342,0.49341 0.146093,1.000602 0.146093,1.520888c0.000689,2.159014 -0.834525,4.11956 -2.190024,5.59221zm-7.309498,-10.961146c-1.998449,0.456887 -3.566197,2.004651 -4.082348,3.97898l0,0c1.320354,0.945473 2.426392,2.172796 3.223704,3.598586c0.457576,-0.07856 0.922043,-0.14127 1.400981,-0.14127c1.804806,0 3.468342,0.584374 4.827976,1.564992l0,0c0.591265,-0.674649 1.023343,-1.494013 1.23008,-2.399516c-3.3443,-0.624343 -5.978118,-3.256782 -6.600393,-6.601771zm-7.725726,14.326119l6.890513,0l-4.134032,6.890513l4.823152,0l-8.957873,11.024545l2.480833,-8.268064l-4.547504,0l3.444912,-9.646993z" fill-rule="nonzero" fill="#65AED5"/>
  </g>
</svg>