<svg xmlns="http://www.w3.org/2000/svg" width="146" height="84" viewBox="0 0 146 84">
    <path fill="#FFF" fill-rule="evenodd" d="M60.108 77.183c-3.312 2.018-7.381 2.979-11.63 2.457-7.52-.923-13.37-6.216-15.013-12.817a27.3 27.3 0 0 1-10.192.655C9.02 65.728-1.197 53.422.453 39.992c1.648-13.43 14.539-22.9 28.791-21.15 5.153.633 9.778 2.646 13.506 5.592C50.47 8.494 68.65-1.506 88.37.914c17.219 2.115 31.008 13.135 36.647 27.436 1.715-.29 3.509-.34 5.336-.115 9.593 1.178 16.47 9.465 15.359 18.51-1.11 9.044-9.788 15.422-19.38 14.244a18.67 18.67 0 0 1-2.782-.558c-7.895 15.558-25.847 25.253-45.295 22.865-6.652-.817-12.791-2.962-18.147-6.113z" opacity=".888"/>
</svg>
