<svg xmlns="http://www.w3.org/2000/svg" width="208" height="114" viewBox="0 0 208 114">
    <path fill="#FFF" fill-rule="evenodd" d="M156.565 88.325c-12.272 16.375-34.277 26.686-58.808 25.4-19.047-.997-35.849-8.79-47.32-20.448a15.21 15.21 0 0 1-10.428 3.391c-7.957-.417-14.166-6.837-14.412-14.609C10.984 79.32.3 68.17.967 55.436c.74-14.134 15.187-24.866 32.267-23.971a37.19 37.19 0 0 1 7.531 1.17C51.724 12.639 76.103-.565 103.671.88c23.772 1.246 44.047 13.075 54.828 29.793 4.562-1.47 9.558-2.157 14.762-1.884 20.006 1.048 35.49 15.89 34.586 33.148-.905 17.26-17.856 30.4-37.861 29.352-4.787-.25-9.315-1.291-13.42-2.965z" opacity=".888"/>
</svg>
