<svg xmlns="http://www.w3.org/2000/svg" width="36" height="35" viewBox="0 0 36 35">
    <path stroke="null" id="svg_1" d="m13.123657,30.545378c-7.204395,0 -13.045377,-5.840167 -13.045377,-13.045377c0,-7.20521 5.840983,-13.045377 13.045377,-13.045377c4.89589,0 9.156553,2.700731 11.387592,6.689038c0.541451,-0.092144 1.091056,-0.167165 1.657785,-0.167165c5.403908,0 9.784441,4.381348 9.784441,9.785256c0,5.402277 -4.380533,9.783625 -9.784441,9.783625c-2.26284,0 -10.437607,0 -13.045377,0zm13.045377,-3.261752c3.602605,0 6.523504,-2.920899 6.523504,-6.521873c0,-3.602605 -2.920899,-6.523504 -6.523504,-6.523504c-1.304701,0 -2.51318,0.392226 -3.533293,1.05273c-1.003804,-4.334869 -4.871427,-7.575419 -9.512084,-7.575419c-5.403092,0 -9.783625,4.380533 -9.783625,9.784441c0,5.403092 4.380533,9.783625 9.783625,9.783625c2.949439,0 10.58357,0 13.045377,0z" fill-rule="nonzero" fill="#65AED5"/>
</svg>