<svg xmlns="http://www.w3.org/2000/svg" width="36" height="35" viewBox="0 0 36 35">
    <path fill="#65AED5" fill-rule="nonzero" d="M26.181 25.387h-.869l2.933-3.431c2.603-.822 4.481-3.152 4.481-5.902 0-3.436-2.93-6.22-6.544-6.22-1.31 0-2.523.373-3.545 1.003-1.008-4.135-4.888-7.226-9.544-7.226-5.422 0-9.817 4.178-9.817 9.334 0 4.235 2.972 7.807 7.04 8.947L9.212 24.83C3.877 23.258.003 18.53.003 12.944.003 6.072 5.863.5 13.093.5c4.912 0 9.187 2.576 11.425 6.381.544-.089 1.094-.16 1.664-.16 5.422 0 9.817 4.178 9.817 9.332 0 5.155-4.396 9.334-9.818 9.334zM16.364 14.5h8.18l-4.908 7.777h5.727L14.728 34.72l2.946-9.332h-5.4l4.09-10.888z"/>
</svg>
