<svg xmlns="http://www.w3.org/2000/svg" width="36" height="35" viewBox="0 0 36 35">
  <g stroke="null" id="svg_36">
   <path stroke="null" id="svg_35" d="m32.386483,18.475462l0,0c1.054183,1.501903 1.679141,3.327458 1.679141,5.304052c0,5.105236 -4.138902,9.245679 -9.245679,9.245679c-2.13842,0 -9.864472,0 -12.328086,0c-6.809037,0 -12.328086,-5.519049 -12.328086,-12.328086s5.519049,-12.328086 12.328086,-12.328086c1.542745,0 3.016135,0.288976 4.377018,0.80682l0,0c1.259934,-3.607957 4.683717,-6.201032 8.72167,-6.201032c0.581804,0 1.148967,0.060107 1.700718,0.163368c-0.100949,0.443096 -0.159515,0.903916 -0.159515,1.377836c0,3.404518 2.759525,6.164043 6.163272,6.164043c0.474691,0 0.93474,-0.058566 1.378606,-0.160285c0.10249,0.552521 0.162597,1.119684 0.162597,1.701489c-0.000771,2.414295 -0.933969,4.607428 -2.449743,6.254203zm-29.141074,2.221645c0,5.106777 4.138902,9.245679 9.245679,9.245679c2.786496,0 10.001639,0 12.328086,0c3.404518,0 6.164043,-2.760295 6.164043,-6.163272c0,-3.404518 -2.759525,-6.164814 -6.164043,-6.164814c-1.232963,0 -2.375765,0.37143 -3.339788,0.994847c-0.948611,-4.096519 -4.602804,-7.15889 -8.988298,-7.15889c-5.106777,0 -9.245679,4.139672 -9.245679,9.24645zm15.064493,-10.862402c0.000771,0 0.001541,0 0.001541,0s-0.000771,0 -0.001541,0zm5.902038,-3.617975c-2.234745,0.51168 -3.987864,2.242451 -4.565815,4.450225l0,0c1.478014,1.057266 2.71483,2.428937 3.606416,4.022541c0.51168,-0.087078 1.030294,-0.157973 1.566633,-0.157973c2.017435,0 3.878438,0.655011 5.398065,1.750036l0,0c0.661176,-0.754419 1.144344,-1.670664 1.376295,-2.683235c-3.73973,-0.696624 -6.68497,-3.639552 -7.381594,-7.381594z" fill-rule="nonzero" fill="#65AED5"/>
  </g>
</svg>