<svg xmlns="http://www.w3.org/2000/svg" width="36" height="35" viewBox="0 0 36 35">
  <g stroke="null" id="svg_12">
   <path stroke="null" id="svg_11" d="m32.111829,15.661441l-2.337682,0c-0.645362,0 -1.169133,-0.523187 -1.169133,-1.169133c0,-0.645362 0.523772,-1.169133 1.169133,-1.169133l2.337682,0c0.645362,0 1.169133,0.523772 1.169133,1.169133c0,0.646531 -0.523187,1.169133 -1.169133,1.169133zm-4.592356,-7.781752c-0.456547,0.456547 -1.196608,0.456547 -1.653155,0s-0.456547,-1.196608 0,-1.653155l1.653155,-1.653155c0.456547,-0.456547 1.196608,-0.456547 1.653155,0c0.455962,0.456547 0.455962,1.196608 0,1.653155l-1.653155,1.653155zm-1.723303,9.123333l0,0c0.784489,0.935307 1.327551,2.078135 1.539164,3.334369l-0.004677,0c0.063718,0.381137 0.105222,0.770459 0.105222,1.169133c0,3.873924 -3.140292,7.014801 -7.013631,7.014801c-0.163679,0 -0.379384,0 -0.62081,0l2.095087,-2.579108c1.859507,-0.617887 3.202256,-2.369249 3.202256,-4.435692c0,-0.403936 -0.057288,-0.794426 -0.153741,-1.169133l0,0c-0.51968,-2.015586 -2.344697,-3.506816 -4.522208,-3.506816c-0.935891,0 -1.802219,0.280592 -2.533512,0.754676c-0.719602,-3.107557 -3.491617,-5.431209 -6.818386,-5.431209c-3.873924,0 -7.014216,3.140877 -7.014216,7.014801c0,0.398674 0.04092,0.787996 0.105807,1.168549l-0.008184,0c0.446609,2.659194 2.389709,4.806892 4.932574,5.556891l-0.789165,2.207908c-3.450697,-1.069757 -6.038574,-4.086121 -6.498044,-7.7648l0,0c-0.047934,-0.38406 -0.08067,-0.772213 -0.08067,-1.168549c0,-5.165231 4.186667,-9.352483 9.351898,-9.352483c0.918939,0 1.805727,0.135619 2.643995,0.382891c1.283124,-1.653155 3.284096,-2.720573 5.53877,-2.720573c3.873924,0 7.014216,3.139708 7.014216,7.013631c-0.000585,0.886203 -0.171863,1.729733 -0.471745,2.510714zm-6.543055,-7.186079c-1.293062,0 -2.463949,0.524941 -3.309817,1.374316c1.367886,0.838853 2.504868,2.01734 3.290526,3.421469c0.388152,-0.066056 0.781566,-0.119836 1.188424,-0.119836c1.242204,0 2.407246,0.326773 3.419715,0.892633l0,0c0.056118,-0.288776 0.0871,-0.586905 0.0871,-0.892633c0,-2.582616 -2.093333,-4.675949 -4.675949,-4.675949zm0,-4.675949c-0.645362,0 -1.169133,-0.523772 -1.169133,-1.169133l0,-2.337682c0,-0.645362 0.523772,-1.169133 1.169133,-1.169133s1.169133,0.523772 1.169133,1.169133l0,2.337682c0,0.645362 -0.523187,1.169133 -1.169133,1.169133zm-8.266358,2.738695l-1.65257,-1.653155c-0.456547,-0.456547 -0.456547,-1.196608 0,-1.653155c0.455962,-0.456547 1.196608,-0.456547 1.65257,0l1.653155,1.653155c0.456547,0.456547 0.456547,1.196608 0,1.653155c-0.455962,0.456547 -1.196023,0.456547 -1.653155,0zm2.421275,12.457701l5.845083,0l-3.506816,5.845667l4.091382,0l-7.598198,9.351898l2.10444,-7.013631l-3.85814,0l2.922249,-8.183934z" fill-rule="nonzero" fill="#65AED5"/>
  </g>
</svg>