<svg xmlns="http://www.w3.org/2000/svg" width="36" height="35" viewBox="0 0 36 35">
  <g stroke="null" id="svg_6">
   <path stroke="null" id="svg_5" d="m27.477465,27.627174l0,-3.224455c2.723646,-0.703819 4.739522,-3.169161 4.739522,-6.112404c0,-3.489078 -2.829495,-6.318573 -6.318573,-6.318573c-1.264663,0 -2.436115,0.379162 -3.423515,1.019787c-0.972392,-4.200007 -4.718195,-7.339151 -9.213632,-7.339151c-5.234803,0 -9.478255,4.244242 -9.478255,9.479045c0,3.505667 1.909238,6.560289 4.738733,8.198584l0,3.511196c-4.628934,-1.876061 -7.897624,-6.408624 -7.897624,-11.71057c0,-6.978947 5.65741,-12.637937 12.637147,-12.637937c4.742682,0 8.870016,2.616216 11.031239,6.480507c0.524507,-0.089261 1.055334,-0.161934 1.605908,-0.161934c5.234013,0 9.477465,4.244242 9.477465,9.477465c0,4.697657 -3.417196,8.584065 -7.898414,9.338439zm-14.950034,-4.597337c0.436826,-0.755954 1.402109,-1.013468 2.158063,-0.578222l1.734665,1.000829l0,-2.002448c0,-0.872072 0.707769,-1.579841 1.579841,-1.579841s1.579841,0.707769 1.579841,1.579841l0,2.002448l1.733875,-1.001619c0.755954,-0.435246 1.722026,-0.177732 2.157273,0.578222c0.436826,0.755954 0.177732,1.722026 -0.577432,2.158063l-1.734665,1.001619l1.734665,1.001619c0.755164,0.436826 1.014258,1.402109 0.577432,2.158063c-0.436036,0.754374 -1.401319,1.013468 -2.157273,0.576642l-1.733875,-1.000039l0,2.002448c0,0.872862 -0.707769,1.579841 -1.579841,1.579841s-1.579841,-0.706979 -1.579841,-1.579841l0,-2.002448l-1.733875,1.001619c-0.755954,0.436826 -1.722026,0.177732 -2.158063,-0.576642c-0.436036,-0.755954 -0.177732,-1.722026 0.578222,-2.158063l1.733875,-1.002409l-1.733875,-1.001619c-0.755954,-0.436826 -1.014258,-1.402109 -0.579012,-2.158063zm5.472569,4.739522c0.872072,0 1.579841,-0.707769 1.579841,-1.579841c0,-0.872862 -0.707769,-1.579841 -1.579841,-1.579841s-1.579841,0.706979 -1.579841,1.579841c0,0.871282 0.707769,1.579841 1.579841,1.579841z" fill-rule="nonzero" fill="#65AED5"/>
  </g>
</svg>