<svg xmlns="http://www.w3.org/2000/svg" width="36" height="35" viewBox="0 0 36 35">
  <g id="svg_12">
   <path id="svg_11" d="m32.58451,26.251436l-29.16902,0c-0.805166,0 -1.458633,-0.653468 -1.458633,-1.458633c0,-0.805895 0.653468,-1.458633 1.458633,-1.458633l29.16902,0c0.805166,0 1.458633,0.652738 1.458633,1.458633c0,0.804436 -0.652738,1.458633 -1.458633,1.458633zm0,-5.834533l-29.16902,0c-0.805166,0 -1.458633,-0.652738 -1.458633,-1.458633c0,-0.805166 0.653468,-1.458633 1.458633,-1.458633l29.16902,0c0.805166,0 1.458633,0.653468 1.458633,1.458633c0,0.805895 -0.652738,1.458633 -1.458633,1.458633zm-7.292437,-8.750341c-1.167636,0 -2.248483,0.350072 -3.160129,0.941548c-0.898518,-3.877777 -4.356938,-6.776081 -8.507479,-6.776081c-4.832452,0 -8.750341,3.918618 -8.750341,8.7518l-2.917267,0c0,-6.443513 5.224095,-11.668337 11.667608,-11.668337c4.378817,0 8.189497,2.415497 10.184907,5.983314c0.484266,-0.082413 0.975096,-0.14951 1.482701,-0.14951c3.808492,0 7.039364,2.437376 8.242008,5.834533l-3.195136,0c-1.009374,-1.743067 -2.888823,-2.917267 -5.046871,-2.917267zm-21.876583,17.500683l29.16902,0c0.805166,0 1.458633,0.653468 1.458633,1.458633c0,0.805895 -0.653468,1.458633 -1.458633,1.458633l-29.16902,0c-0.805166,0 -1.458633,-0.652738 -1.458633,-1.458633c0,-0.805166 0.652738,-1.458633 1.458633,-1.458633z" fill-rule="nonzero" fill="#65AED5"/>
  </g>
</svg>