<svg xmlns="http://www.w3.org/2000/svg" width="45" height="40" viewBox="0 0 45 40">
    <path fill="#65AED5" fill-rule="nonzero" d="M43.315 21.797h-3.272a1.636 1.636 0 0 1 0-3.27h3.272a1.636 1.636 0 1 1 0 3.27zm-6.428-10.891a1.636 1.636 0 0 1-2.314-2.313l2.314-2.314A1.636 1.636 0 1 1 39.2 8.593l-2.314 2.313zm-2.411 12.769a9.776 9.776 0 0 1 2.296 6.304c0 5.42-4.396 9.817-9.818 9.817h-13.09c-7.228 0-13.088-5.86-13.088-13.09 0-7.23 5.86-13.089 13.089-13.089 1.286 0 2.528.19 3.7.535a9.793 9.793 0 0 1 7.753-3.808c5.422 0 9.817 4.396 9.817 9.817 0 1.24-.24 2.422-.66 3.514zM4.048 26.706a9.816 9.816 0 0 0 9.816 9.817h13.09a6.545 6.545 0 0 0 0-13.09c-1.31 0-2.523.395-3.546 1.057-1.007-4.35-4.888-7.6-9.544-7.6a9.816 9.816 0 0 0-9.816 9.816zm21.269-13.089c-1.81 0-3.449.735-4.633 1.922a13.183 13.183 0 0 1 4.606 4.79c.543-.093 1.094-.168 1.663-.168 1.739 0 3.37.457 4.787 1.25a6.545 6.545 0 0 0-6.423-7.793zm0-6.545a1.636 1.636 0 0 1-1.636-1.636V2.164a1.636 1.636 0 1 1 3.272 0v3.272c0 .904-.731 1.636-1.636 1.636zm-11.57 3.834l-2.312-2.313a1.636 1.636 0 0 1 2.313-2.314l2.314 2.314a1.635 1.635 0 1 1-2.314 2.313z"/>
</svg>
