<svg xmlns="http://www.w3.org/2000/svg" width="36" height="35" viewBox="0 0 36 35">
  <g id="svg_7">
   <path id="svg_6" d="m451.970916,83.235569l0,-30.966401c16.886266,-9.775515 28.273363,-27.997698 28.273363,-48.912918c0,-31.220861 -25.318797,-56.539658 -56.546726,-56.539658c-11.309345,0 -21.784626,3.392804 -30.627121,9.125228c-8.701128,-37.582368 -42.226268,-65.664886 -82.452195,-65.664886c-46.834826,0 -84.805953,37.971127 -84.805953,84.805953c0,25.09261 10.962997,47.555797 28.273363,63.084942l0,34.747963c-33.765464,-19.565167 -56.546726,-55.995396 -56.546726,-97.832905c0,-62.448791 50.630525,-113.072248 113.079316,-113.072248c42.438318,0 79.370399,23.403276 98.709379,57.9816c4.693378,-0.798723 9.45744,-1.44901 14.369937,-1.44901c46.841895,0 84.813021,37.971127 84.813021,84.813021c0,36.917944 -23.615327,68.230694 -56.539658,79.879319zm-155.482293,-79.872251c7.803448,0 14.129613,6.333233 14.129613,14.136682l0,113.079316c0,7.810517 -6.326165,14.136682 -14.129613,14.136682s-14.136682,-6.326165 -14.136682,-14.136682l0,-113.079316c0,-7.803448 6.333233,-14.136682 14.136682,-14.136682zm56.539658,28.273363c7.803448,0 14.136682,6.326165 14.136682,14.136682l0,113.079316c0,7.803448 -6.333233,14.136682 -14.136682,14.136682s-14.136682,-6.333233 -14.136682,-14.136682l0,-113.079316c0,-7.817585 6.333233,-14.136682 14.136682,-14.136682zm56.539658,-28.273363c7.803448,0 14.129613,6.333233 14.129613,14.136682l0,113.079316c0,7.810517 -6.326165,14.136682 -14.129613,14.136682s-14.136682,-6.326165 -14.136682,-14.136682l0,-113.079316c0,-7.803448 6.333233,-14.136682 14.136682,-14.136682z" cfill-rule="nonzero" fill="#65AED5"/>
  </g>
  <g stroke="null" id="svg_13">
   <path stroke="null" id="svg_12" d="m28.577679,24.527354l0,-3.310413c1.805199,-1.045035 3.022518,-2.993048 3.022518,-5.228956c0,-3.337615 -2.706665,-6.04428 -6.045035,-6.04428c-1.209007,0 -2.32885,0.362702 -3.274142,0.975518c-0.93018,-4.017682 -4.51413,-7.019797 -8.814417,-7.019797c-5.006801,0 -9.066042,4.059241 -9.066042,9.066042c0,2.682484 1.171981,5.083875 3.022518,6.743993l0,3.714674c-3.609642,-2.091582 -6.045035,-5.986096 -6.045035,-10.458667c0,-6.675986 5.412574,-12.087804 12.08856,-12.087804c4.536799,0 8.484963,2.501889 10.552365,6.198428c0.501738,-0.085386 1.011032,-0.154904 1.536195,-0.154904c5.007556,0 9.066797,4.059241 9.066797,9.066797c0,3.946652 -2.524558,7.294091 -6.04428,8.539368zm-16.62158,-8.538613c0.834215,0 1.510503,0.677044 1.510503,1.511259l0,12.08856c0,0.834971 -0.676288,1.511259 -1.510503,1.511259s-1.511259,-0.676288 -1.511259,-1.511259l0,-12.08856c0,-0.834215 0.677044,-1.511259 1.511259,-1.511259zm6.04428,3.022518c0.834215,0 1.511259,0.676288 1.511259,1.511259l0,12.08856c0,0.834215 -0.677044,1.511259 -1.511259,1.511259s-1.511259,-0.677044 -1.511259,-1.511259l0,-12.08856c0,-0.835726 0.677044,-1.511259 1.511259,-1.511259zm6.04428,-3.022518c0.834215,0 1.510503,0.677044 1.510503,1.511259l0,12.08856c0,0.834971 -0.676288,1.511259 -1.510503,1.511259s-1.511259,-0.676288 -1.511259,-1.511259l0,-12.08856c0,-0.834215 0.677044,-1.511259 1.511259,-1.511259z" fill-rule="nonzero" fill="#65AED5"/>
  </g>
</svg>