<?xml version="1.0" encoding="UTF-8" standalone="no"?>
<!DOCTYPE svg PUBLIC "-//W3C//DTD SVG 1.1//EN" "http://www.w3.org/Graphics/SVG/1.1/DTD/svg11.dtd">
<svg width="100%" height="100%" viewBox="0 0 45 40" version="1.1" xmlns="http://www.w3.org/2000/svg" xmlns:xlink="http://www.w3.org/1999/xlink" xml:space="preserve" xmlns:serif="http://www.serif.com/" style="fill-rule:evenodd;clip-rule:evenodd;stroke-linejoin:round;stroke-miterlimit:1.41421;">
    <g transform="matrix(0.0843886,0,0,0.0843886,4.44656,3.9357)">
        <g>
            <g>
                <g transform="matrix(1,0,0,1,73.2686,2.03274e-05)">
                    <path d="M122.967,318.771C139.865,336.622 163.843,347.701 190.36,347.701C241.977,347.701 283.966,305.711 283.965,254.077C283.965,230.399 261.529,199.702 237.758,167.211C216.357,137.949 192.811,105.748 181.094,71.682C161.784,95.915 159.733,96.945 144.394,128.709C138.29,126.628 131.014,125.14 123.252,124.357L109.889,124.147C133.997,72.149 151.482,51.34 178.853,24.748L204.309,0L206.818,35.42C209.468,72.588 237.398,110.79 264.412,147.72C291.448,184.685 316.998,219.604 316.999,254.077C316.999,323.929 260.195,380.722 190.361,380.722C142.908,380.722 101.467,354.494 80.396,315.673C88.069,312.774 101.202,312.566 122.967,318.771Z"/>
                </g>
                <g transform="matrix(0.682737,0,0,0.682737,60.738,52.2904)">
                    <g transform="matrix(11.8499,0,0,11.8499,-37.7608,12.6119)">
                        <path d="M16.293,17.933C18.55,17.973 20.731,18.753 22.859,19.573C22.859,19.573 23.479,19.902 23.499,20.469C23.53,21.3 23.094,21.794 21.464,21.182C19.314,20.393 17.052,19.564 14.913,20.078C12.493,20.659 10.735,22.866 8.126,23.22C5.413,23.587 2.525,22.517 0.629,20.674C0.543,20.59 0.473,20.491 0.422,20.383C0.002,19.493 1.032,18.5 2.239,19.398C2.536,19.612 2.84,19.814 3.155,20.001C3.429,20.163 3.709,20.314 3.995,20.452C6.245,21.539 8.648,21.166 11.614,19.385C13.063,18.527 14.394,17.922 16.293,17.933Z" style="fill-rule:nonzero;"/>
                    </g>
                    <g transform="matrix(11.8499,0,0,11.8499,-37.7608,-46.6378)">
                        <path d="M16.293,17.933C18.55,17.973 20.731,18.753 22.859,19.573C22.859,19.573 23.479,19.902 23.499,20.469C23.53,21.3 23.094,21.794 21.464,21.182C19.314,20.393 17.052,19.564 14.913,20.078C12.493,20.659 10.735,22.866 8.126,23.22C5.413,23.587 2.525,22.517 0.629,20.674C0.543,20.59 0.473,20.491 0.422,20.383C0.002,19.493 1.032,18.5 2.239,19.398C2.536,19.612 2.84,19.814 3.155,20.001C3.429,20.163 3.709,20.314 3.995,20.452C6.245,21.539 8.648,21.166 11.614,19.385C13.063,18.527 14.394,17.922 16.293,17.933Z" style="fill-rule:nonzero;"/>
                    </g>
                    <g transform="matrix(11.8499,0,0,11.8499,-37.7608,71.4125)">
                        <path d="M16.293,17.933C18.55,17.973 20.731,18.753 22.859,19.573C22.859,19.573 23.479,19.916 23.499,20.469C23.53,21.308 23.22,21.842 21.464,21.182C19.314,20.393 17.052,19.564 14.913,20.078C12.493,20.659 10.735,22.866 8.126,23.22C5.413,23.587 2.525,22.517 0.629,20.674C0.543,20.59 0.473,20.491 0.422,20.383C0.008,19.506 1.02,18.491 2.239,19.398C2.536,19.612 2.84,19.814 3.155,20.001C3.429,20.163 3.709,20.314 3.995,20.452C6.245,21.539 8.648,21.166 11.614,19.385C13.063,18.527 14.394,17.922 16.293,17.933Z" style="fill-rule:nonzero;"/>
                    </g>
                </g>
            </g>
        </g>
    </g>
</svg>
