<svg xmlns="http://www.w3.org/2000/svg" width="45" height="40" viewBox="0 0 45 40">
    <g transform="matrix(0.714375,0,0,0.714375,-16.7899,-12.6059)">
        <path fill="#65AED5" fill-rule="nonzero" d="M79.996,43.642L75.997,43.642C74.893,43.642 73.997,42.747 73.997,41.642C73.997,40.538 74.893,39.642 75.997,39.642L79.996,39.642C81.1,39.642 81.996,40.538 81.996,41.642C81.996,42.748 81.101,43.642 79.996,43.642ZM72.14,30.33C71.359,31.111 70.093,31.111 69.312,30.33C68.531,29.549 68.531,28.283 69.312,27.502L72.14,24.674C72.921,23.893 74.187,23.893 74.968,24.674C75.748,25.455 75.748,26.721 74.968,27.502L72.14,30.33ZM69.192,45.937C70.104,47.025 70.822,48.277 71.305,49.642L66.918,49.642C65.534,47.253 62.957,45.642 59.998,45.642C58.397,45.642 56.915,46.122 55.664,46.933C54.433,41.617 49.691,37.642 44,37.642C37.373,37.642 32.001,43.015 32.001,49.642L28.002,49.642C28.002,40.806 35.164,33.643 44,33.643C45.572,33.643 47.089,33.875 48.523,34.298C50.718,31.47 54.141,29.644 57.998,29.644C64.625,29.644 69.997,35.015 69.997,41.642C69.998,43.158 69.705,44.601 69.192,45.937ZM57.999,33.644C55.787,33.644 53.784,34.542 52.337,35.995C54.677,37.43 56.622,39.448 57.966,41.848C58.63,41.735 59.303,41.643 59.999,41.643C62.124,41.643 64.117,42.202 65.849,43.17C65.945,42.676 65.998,42.166 65.998,41.643C65.998,37.225 62.417,33.644 57.999,33.644ZM57.999,25.645C56.895,25.645 55.999,24.75 55.999,23.645L55.999,19.646C55.999,18.542 56.895,17.646 57.999,17.646C59.103,17.646 59.999,18.542 59.999,19.646L59.999,23.645C59.999,24.75 59.104,25.645 57.999,25.645ZM43.858,30.33L41.031,27.502C40.25,26.721 40.25,25.455 41.031,24.674C41.811,23.893 43.078,23.893 43.858,24.674L46.686,27.502C47.467,28.283 47.467,29.549 46.686,30.33C45.906,31.111 44.64,31.111 43.858,30.33ZM30.003,53.641L69.998,53.641C71.102,53.641 71.997,54.537 71.997,55.641C71.997,56.746 71.101,57.641 69.998,57.641L30.003,57.641C28.899,57.641 28.003,56.746 28.003,55.641C28.003,54.537 28.898,53.641 30.003,53.641ZM30.003,61.641L69.998,61.641C71.102,61.641 71.997,62.536 71.997,63.641C71.997,64.745 71.101,65.641 69.998,65.641L30.003,65.641C28.899,65.641 28.003,64.745 28.003,63.641C28.003,62.535 28.898,61.641 30.003,61.641ZM30.003,69.639L69.998,69.639C71.102,69.639 71.997,70.535 71.997,71.639C71.997,72.744 71.101,73.639 69.998,73.639L30.003,73.639C28.899,73.639 28.003,72.744 28.003,71.639C28.003,70.535 28.898,69.639 30.003,69.639Z"/>
    </g>
</svg>
