<svg xmlns="http://www.w3.org/2000/svg" width="45" height="40" viewBox="0 0 45 40">
    <g transform="matrix(0.71428,0,0,0.71428,-13.2144,-18.3151)">
        <path fill="#65AED5" fill-rule="nonzero" d="M69.998,65.641L30.003,65.641C28.899,65.641 28.003,64.745 28.003,63.641C28.003,62.536 28.899,61.641 30.003,61.641L69.998,61.641C71.102,61.641 71.998,62.536 71.998,63.641C71.998,64.744 71.103,65.641 69.998,65.641ZM69.998,57.641L30.003,57.641C28.899,57.641 28.003,56.746 28.003,55.641C28.003,54.537 28.899,53.641 30.003,53.641L69.998,53.641C71.102,53.641 71.998,54.537 71.998,55.641C71.998,56.746 71.103,57.641 69.998,57.641ZM59.999,45.643C58.398,45.643 56.916,46.123 55.666,46.934C54.434,41.617 49.692,37.643 44.001,37.643C37.375,37.643 32.003,43.016 32.003,49.643L28.003,49.643C28.003,40.808 35.166,33.644 44.001,33.644C50.005,33.644 55.23,36.956 57.966,41.848C58.63,41.735 59.303,41.643 59.999,41.643C65.221,41.643 69.651,44.985 71.3,49.643L66.919,49.643C65.535,47.253 62.958,45.643 59.999,45.643ZM30.003,69.639L69.998,69.639C71.102,69.639 71.998,70.535 71.998,71.639C71.998,72.744 71.102,73.639 69.998,73.639L30.003,73.639C28.899,73.639 28.003,72.744 28.003,71.639C28.003,70.535 28.898,69.639 30.003,69.639Z"/>
    </g>
</svg>
