<svg xmlns="http://www.w3.org/2000/svg" width="36" height="35" viewBox="0 0 36 35">
  <g stroke="null" id="svg_18">
   <path stroke="null" id="svg_17" d="m32.352225,18.804274l-2.608546,0c-0.720971,0 -1.304926,-0.583954 -1.304926,-1.304273s0.583954,-1.304926 1.304926,-1.304926l2.608546,0c0.720971,0 1.304926,0.584607 1.304926,1.304926s-0.583302,1.304273 -1.304926,1.304273zm-5.125096,-8.684933c-0.509573,0.509573 -1.336896,0.509573 -1.845165,0c-0.509573,-0.509573 -0.509573,-1.335591 0,-1.845165l1.845165,-1.845165c0.508269,-0.509573 1.335591,-0.509573 1.845165,0c0.508269,0.509573 0.508269,1.335591 0,1.845165l-1.845165,1.845165zm-9.226477,15.208909c-4.323871,0 -7.829554,-3.50503 -7.829554,-7.828249c0,-4.323871 3.50503,-7.828902 7.829554,-7.828902c4.323871,0 7.828249,3.50503 7.828249,7.828902c0,4.323219 -3.504378,7.828249 -7.828249,7.828249zm0,-13.047299c-2.882581,0 -5.219703,2.336469 -5.219703,5.21905c0,2.881928 2.337774,5.21905 5.219703,5.21905s5.218398,-2.337122 5.218398,-5.21905c0,-2.882581 -2.335817,-5.21905 -5.218398,-5.21905zm0,-5.21905c-0.720971,0 -1.304926,-0.584607 -1.304926,-1.304926l0,-2.609199c0,-0.720319 0.583954,-1.304926 1.304926,-1.304926c0.720319,0 1.304926,0.584607 1.304926,1.304926l0,2.609199c0,0.720319 -0.585259,1.304926 -1.304926,1.304926zm-9.226477,3.057441l-1.845165,-1.845165c-0.509573,-0.509573 -0.509573,-1.335591 0,-1.845165s1.335591,-0.509573 1.845165,0l1.845165,1.845165c0.509573,0.509573 0.509573,1.335591 0,1.845165s-1.335591,0.509573 -1.845165,0zm-1.212276,7.38066c0,0.720319 -0.584607,1.304273 -1.304926,1.304273l-2.609851,0c-0.720319,0 -1.304273,-0.583954 -1.304273,-1.304273s0.584607,-1.304926 1.304273,-1.304926l2.609851,0c0.720971,0 1.304926,0.584607 1.304926,1.304926zm1.212276,7.38066c0.509573,-0.508921 1.335591,-0.508921 1.845165,0c0.509573,0.509573 0.509573,1.336244 0,1.845165l-1.845165,1.845165c-0.509573,0.509573 -1.335591,0.509573 -1.845165,0c-0.509573,-0.508921 -0.509573,-1.335591 0,-1.845165l1.845165,-1.845165zm9.226477,3.057441c0.720319,0 1.304926,0.583954 1.304926,1.304273l0,2.609851c0,0.720319 -0.584607,1.304926 -1.304926,1.304926c-0.720971,0 -1.304926,-0.584607 -1.304926,-1.304926l0,-2.609851c0,-0.720319 0.583954,-1.304273 1.304926,-1.304273zm9.226477,-3.057441l1.845165,1.845165c0.508269,0.509573 0.508269,1.336244 0,1.845165c-0.509573,0.509573 -1.336896,0.509573 -1.845165,0l-1.845165,-1.845165c-0.509573,-0.508921 -0.509573,-1.335591 0,-1.845165c0.508269,-0.509573 1.334939,-0.509573 1.845165,0z" fill-rule="nonzero" fill="#65AED5"/>
  </g>
</svg>