<svg xmlns="http://www.w3.org/2000/svg" width="36" height="35" viewBox="0 0 36 35">
  <g stroke="null" id="svg_48">
   <path stroke="null" id="svg_47" d="m30.178459,15.311235c-2.333746,0 -4.226409,1.032012 -4.226409,2.304545c0,-1.272533 -1.891126,-2.304545 -4.226409,-2.304545c-1.4316,0 -2.692607,0.391135 -3.456434,0.985137l0,6.697705l0.768438,0l0,3.073752c0,0.848356 0.687752,1.536876 1.536876,1.536876c0.848356,0 1.535339,-0.68852 1.535339,-1.536876s0.68852,-1.536876 1.536876,-1.536876c0.849124,0 1.536876,0.68852 1.536876,1.536876c0,2.545835 -2.064024,4.609859 -4.609091,4.609859c-2.546603,0 -4.610628,-2.064024 -4.610628,-4.609859l0,-3.073752l0.768438,0l0,-6.697705c-0.763827,-0.594003 -2.024834,-0.985137 -3.457971,-0.985137c-2.333746,0 -4.224872,1.032012 -4.224872,2.304545l0,0c0,-1.272533 -1.892663,-2.304545 -4.226409,-2.304545s-4.226409,1.032012 -4.226409,2.304545c0,-5.516616 7.569114,-12.29347 16.904867,-12.29347s16.901793,6.776854 16.901793,12.29347c0,-1.272533 -1.891126,-2.304545 -4.224872,-2.304545z" fill="#65AED5" fill-rule="nonzero"/>
  </g>
</svg>