<?xml version="1.0" encoding="UTF-8" standalone="no"?>
<!DOCTYPE svg PUBLIC "-//W3C//DTD SVG 1.1//EN" "http://www.w3.org/Graphics/SVG/1.1/DTD/svg11.dtd">
<svg width="100%" height="100%" viewBox="0 0 45 40" version="1.1" xmlns="http://www.w3.org/2000/svg" xmlns:xlink="http://www.w3.org/1999/xlink" xml:space="preserve" xmlns:serif="http://www.serif.com/" style="fill-rule:evenodd;clip-rule:evenodd;stroke-linejoin:round;stroke-miterlimit:1.41421;">
    <g transform="matrix(0.0843886,0,0,0.0843886,6.4357,3.9357)">
        <path d="M264.412,147.72C237.398,110.79 209.468,72.588 206.818,35.42L204.309,0L178.853,24.748C132.488,69.793 63.723,185.945 63.723,254.077C63.723,323.929 120.533,380.722 190.361,380.722C260.195,380.722 316.999,323.929 316.999,254.077C316.998,219.604 291.448,184.685 264.412,147.72ZM190.36,347.701C138.738,347.701 96.737,305.712 96.737,254.077C96.737,208.567 139.9,123.379 181.094,71.682C192.811,105.748 216.357,137.949 237.758,167.211C261.529,199.702 283.965,230.399 283.965,254.077C283.966,305.711 241.977,347.701 190.36,347.701Z" style="fill-rule:nonzero;"/>
        <path d="M163.533,300.831C160.698,297.892 158.095,294.499 155.522,290.978C152.786,287.26 150.875,284.065 148.609,279.707L146.802,276.269L145.884,274.538L145.663,274.12L145.6,274.016C145.385,273.632 145.85,274.457 145.803,274.365L145.791,274.318L145.722,274.132L145.425,273.364L142.939,267.218C142.376,265.069 141.649,262.977 140.999,260.851C140.558,258.666 140.128,256.471 139.594,254.309C138.966,249.883 138.345,245.445 138.083,241.018C137.787,232.164 138.229,223.543 138.914,215.968C140.5,200.875 142.33,189.849 142.33,189.849C142.33,189.849 133.61,197.192 126.424,212.389C124.53,216.154 122.915,220.43 121.509,225.088C120.882,227.459 120.225,229.887 119.557,232.373C119.18,234.941 118.796,237.566 118.395,240.25C118.203,242.969 118.011,245.758 117.82,248.57C117.843,251.404 118.081,254.297 118.238,257.214C118.965,263.047 120.237,268.949 122.328,274.665C123.437,277.477 124.733,280.242 126.069,282.949L126.569,283.96L127.04,284.844L127.307,285.262L128.329,286.923L130.386,290.211C133.477,294.672 137.561,299.738 141.284,303.434C145.124,307.372 149.504,310.463 153.658,313.251C157.835,316.004 162.232,317.84 166.235,319.397C174.356,322.348 181.484,323.022 186.352,322.953C191.267,322.849 193.927,322.104 193.927,322.104C193.927,322.104 183.482,318.003 172.073,308.778C169.156,306.524 166.432,303.667 163.533,300.831Z" style="fill-rule:nonzero;"/>
    </g>
</svg>
